<svg width="20" height="20" viewBox="0 0 20 20" fill="none"
    xmlns="http://www.w3.org/2000/svg">
    <path d="M9.11625 1.60938C4.98398 1.60938 1.61787 4.97548 1.61787 9.10776C1.61787 13.24 4.98398 16.6127 9.11625 16.6127C10.8813 16.6127 12.5045 15.9941 13.7875 14.9671L16.9109 18.0889C17.0685 18.24 17.279 18.3233 17.4973 18.3211C17.7157 18.3189 17.9244 18.2312 18.0789 18.0769C18.2334 17.9227 18.3214 17.714 18.3239 17.4957C18.3264 17.2774 18.2434 17.0667 18.0925 16.9089L14.9691 13.7856C15.997 12.5006 16.6163 10.8748 16.6163 9.10776C16.6163 4.97548 13.2485 1.60938 9.11625 1.60938ZM9.11625 3.27607C12.3478 3.27607 14.948 5.87623 14.948 9.10776C14.948 12.3393 12.3478 14.946 9.11625 14.946C5.88472 14.946 3.28454 12.3393 3.28454 9.10776C3.28454 5.87623 5.88472 3.27607 9.11625 3.27607Z" fill="#041E42"/>
</svg>