<svg width="16" height="16" viewBox="0 0 16 16" fill="none"
    xmlns="http://www.w3.org/2000/svg">
    <g clip-path="url(#clip0_67_8386)">
        <path d="M14.3991 5.27221V3.06661C14.3991 1.51892 13.1399 0.259766 11.5922 0.259766H4.40775C2.86006 0.259766 1.60091 1.51892 1.60091 3.06661V5.27221C0.684469 5.48786 0 6.3118 0 7.29308V10.141C0 12.2507 1.59491 13.9946 3.64225 14.2311V15.2641C3.64225 15.5267 3.85519 15.7396 4.11781 15.7396C4.38047 15.7396 4.59338 15.5267 4.59338 15.2641V14.2588H11.4067V15.2641C11.4067 15.5267 11.6196 15.7396 11.8822 15.7396C12.1448 15.7396 12.3578 15.5267 12.3578 15.2641V14.2311C14.4051 13.9946 16 12.2507 16 10.141V7.29305C16 6.3118 15.3155 5.48786 14.3991 5.27221ZM2.55206 3.06661C2.55206 2.04339 3.38453 1.21092 4.40775 1.21092H11.5922C12.6154 1.21092 13.4479 2.04339 13.4479 3.06661V5.27221C12.5315 5.48786 11.847 6.31177 11.847 7.29308V10.1058H4.15297V7.29308C4.15297 6.3118 3.4685 5.48786 2.55206 5.27221V3.06661ZM15.0489 10.141C15.0489 11.8871 13.6283 13.3076 11.8822 13.3076H4.11781C2.37172 13.3076 0.951125 11.8871 0.951125 10.141V7.29305C0.951125 6.67255 1.45597 6.16774 2.07647 6.16774C2.697 6.16774 3.20181 6.67258 3.20181 7.29305V10.141C3.20181 10.6461 3.61269 11.057 4.11778 11.057H11.8822C12.3872 11.057 12.7981 10.6461 12.7981 10.141V7.29305C12.7981 6.67255 13.303 6.16774 13.9235 6.16774C14.544 6.16774 15.0488 6.67258 15.0488 7.29305V10.141H15.0489Z" fill="#041E42"/>
        <path d="M6.63612 4.05176C6.38737 4.05176 6.14906 4.27048 6.16056 4.52732C6.17209 4.78498 6.36952 5.00288 6.63612 5.00288C6.88487 5.00288 7.12318 4.78416 7.11168 4.52732C7.10012 4.26966 6.90271 4.05176 6.63612 4.05176Z" fill="#041E42"/>
        <path d="M6.63612 6.49512C6.38737 6.49512 6.14906 6.71384 6.16056 6.97068C6.17209 7.22834 6.36952 7.44624 6.63612 7.44624C6.88487 7.44624 7.12318 7.22752 7.11168 6.97068C7.10012 6.71302 6.90271 6.49512 6.63612 6.49512Z" fill="#041E42"/>
        <path d="M9.36268 4.05176C9.11393 4.05176 8.87562 4.27048 8.88712 4.52732C8.89865 4.78498 9.09609 5.00288 9.36268 5.00288C9.61143 5.00288 9.84974 4.78416 9.83824 4.52732C9.82671 4.26966 9.6293 4.05176 9.36268 4.05176Z" fill="#041E42"/>
        <path d="M9.36268 6.49512C9.11393 6.49512 8.87562 6.71384 8.88712 6.97068C8.89865 7.22834 9.09609 7.44624 9.36268 7.44624C9.61143 7.44624 9.84974 7.22752 9.83824 6.97068C9.82671 6.71302 9.6293 6.49512 9.36268 6.49512Z" fill="#041E42"/>
    </g>
    <defs>
        <clipPath id="clip0_67_8386">
            <rect width="16" height="16" fill="white"/>
        </clipPath>
    </defs>
</svg>