<svg width="14" height="13" viewBox="0 0 14 13" fill="none"
    xmlns="http://www.w3.org/2000/svg">
    <path d="M0.293011 6.7049C0.293262 6.70515 0.293543 6.70543 0.293793 6.70568L5.30226 11.7141C5.69517 12.1036 6.3294 12.1008 6.71884 11.7079C6.74961 11.6768 6.77831 11.6438 6.8048 11.609C7.08561 11.1901 7.02432 10.6299 6.65955 10.2817L3.89488 7.50704C3.74791 7.35991 3.57894 7.23655 3.39403 7.14142L3.08852 6.98115L12.9301 6.98115C13.4341 7.00234 13.8802 6.65773 13.9869 6.16477C14.0755 5.61869 13.7046 5.1042 13.1585 5.01564C13.1012 5.00634 13.0432 5.00206 12.9852 5.00281L3.10855 5.00281L3.32391 4.90264C3.53405 4.8045 3.72553 4.67062 3.88987 4.50697L6.65955 1.73729C7.02432 1.38907 7.08561 0.828908 6.8048 0.410044C6.47796 -0.0363042 5.85118 -0.133219 5.40481 0.193615C5.36874 0.220035 5.33447 0.248835 5.30226 0.279824L0.293793 5.28829C-0.0975861 5.67926 -0.0979304 6.31349 0.293011 6.7049Z" fill="#041E42"/>
</svg>